<svg xmlns="http://www.w3.org/2000/svg" width="1400" height="850" viewBox="0 0 1400 850">
<defs><linearGradient id="bg" x1="0" x2="1"><stop stop-color="#0f172a"/><stop offset="1" stop-color="#020617"/></linearGradient><linearGradient id="accent"><stop stop-color="#6366f1"/><stop offset="1" stop-color="#8b5cf6"/></linearGradient></defs>
<rect width="1400" height="850" rx="22" fill="#f8fafc"/>
<rect width="250" height="850" rx="22" fill="url(#bg)"/>
<text x="35" y="65" fill="white" font-family="Arial" font-size="27" font-weight="700">🎓 Dream Verse</text>
<rect x="22" y="105" width="206" height="52" rx="13" fill="url(#accent)"/><text x="48" y="138" fill="white" font-family="Arial" font-size="17" font-weight="700">⌂  Dashboard</text>
<text x="35" y="205" fill="#94a3b8" font-family="Arial" font-size="12" font-weight="700">ACADEMICS</text>
<text x="48" y="250" fill="#e2e8f0" font-family="Arial" font-size="16">◉  Attendance</text><text x="48" y="295" fill="#e2e8f0" font-family="Arial" font-size="16">▣  Time Table</text><text x="48" y="340" fill="#e2e8f0" font-family="Arial" font-size="16">✓  My Marks</text><text x="48" y="385" fill="#e2e8f0" font-family="Arial" font-size="16">□  Subjects</text>
<text x="35" y="440" fill="#94a3b8" font-family="Arial" font-size="12" font-weight="700">OTHERS</text><text x="48" y="485" fill="#e2e8f0" font-family="Arial" font-size="16">◫  Calendar</text><text x="48" y="530" fill="#e2e8f0" font-family="Arial" font-size="16">⚙  Settings</text>
<line x1="30" y1="755" x2="220" y2="755" stroke="#334155"/><circle cx="55" cy="795" r="22" fill="#8b5cf6"/><text x="90" y="795" fill="white" font-family="Arial" font-size="15" font-weight="700">Student Portal</text>
<text x="290" y="58" fill="#111827" font-family="Arial" font-size="28" font-weight="700">Welcome back 👋</text><text x="290" y="87" fill="#64748b" font-family="Arial" font-size="15">Here’s your academic summary</text>
<rect x="1120" y="35" width="220" height="42" rx="10" fill="white" stroke="#e2e8f0"/><text x="1140" y="62" fill="#94a3b8" font-family="Arial" font-size="14">⌕  Search...</text>
<g font-family="Arial"><rect x="290" y="120" width="245" height="125" rx="18" fill="#eef2ff"/><text x="315" y="153" font-size="15" fill="#334155" font-weight="700">Attendance</text><text x="315" y="198" font-size="34" fill="#4f46e5" font-weight="700">87%</text><text x="315" y="222" font-size="12" fill="#64748b">Overall attendance</text>
<rect x="555" y="120" width="245" height="125" rx="18" fill="#ecfdf5"/><text x="580" y="153" font-size="15" fill="#334155" font-weight="700">Timetable</text><text x="580" y="198" font-size="28" fill="#059669" font-weight="700">Today</text><text x="580" y="222" font-size="12" fill="#64748b">View class schedule</text>
<rect x="820" y="120" width="245" height="125" rx="18" fill="#f5f3ff"/><text x="845" y="153" font-size="15" fill="#334155" font-weight="700">Avg Marks</text><text x="845" y="198" font-size="34" fill="#7c3aed" font-weight="700">83.2</text><text x="845" y="222" font-size="12" fill="#64748b">Current average</text>
<rect x="1085" y="120" width="255" height="125" rx="18" fill="#fff7ed"/><text x="1110" y="153" font-size="15" fill="#334155" font-weight="700">Calendar</text><text x="1110" y="198" font-size="28" fill="#ea580c" font-weight="700">May 2025</text><text x="1110" y="222" font-size="12" fill="#64748b">Upcoming academic dates</text>
<rect x="290" y="270" width="505" height="265" rx="18" fill="white" stroke="#e2e8f0"/><text x="315" y="307" font-size="17" fill="#111827" font-weight="700">Attendance Overview</text><circle cx="505" cy="420" r="82" fill="none" stroke="#e5e7eb" stroke-width="25"/><path d="M505 338 A82 82 0 1 1 435 462" fill="none" stroke="#6366f1" stroke-width="25" stroke-linecap="round"/><text x="473" y="426" font-size="27" fill="#111827" font-weight="700">87%</text><text x="460" y="450" font-size="12" fill="#64748b">Present</text><text x="620" y="405" font-size="14" fill="#334155">Present — 87%</text><text x="620" y="435" font-size="14" fill="#334155">Absent — 13%</text>
<rect x="815" y="270" width="525" height="265" rx="18" fill="white" stroke="#e2e8f0"/><text x="840" y="307" font-size="17" fill="#111827" font-weight="700">Academic Summary</text><text x="840" y="350" font-size="14" fill="#334155">Data Structures</text><rect x="840" y="365" width="450" height="10" rx="5" fill="#e2e8f0"/><rect x="840" y="365" width="405" height="10" rx="5" fill="#6366f1"/><text x="1255" y="350" font-size="13" fill="#64748b">90%</text><text x="840" y="405" font-size="14" fill="#334155">Database Systems</text><rect x="840" y="420" width="450" height="10" rx="5" fill="#e2e8f0"/><rect x="840" y="420" width="382" height="10" rx="5" fill="#8b5cf6"/><text x="1255" y="405" font-size="13" fill="#64748b">85%</text><text x="840" y="460" font-size="14" fill="#334155">Computer Networks</text><rect x="840" y="475" width="450" height="10" rx="5" fill="#e2e8f0"/><rect x="840" y="475" width="360" height="10" rx="5" fill="#22c55e"/><text x="1255" y="460" font-size="13" fill="#64748b">80%</text>
<rect x="290" y="560" width="505" height="245" rx="18" fill="white" stroke="#e2e8f0"/><text x="315" y="598" font-size="17" fill="#111827" font-weight="700">Time Table — Today</text><text x="315" y="640" font-size="14" fill="#334155">08:30  Data Structures</text><text x="315" y="680" font-size="14" fill="#334155">09:45  Operating Systems</text><text x="315" y="720" font-size="14" fill="#334155">11:00  Database Management</text><text x="315" y="760" font-size="14" fill="#334155">13:00  Computer Networks</text>
<rect x="815" y="560" width="525" height="245" rx="18" fill="white" stroke="#e2e8f0"/><text x="840" y="598" font-size="17" fill="#111827" font-weight="700">Marks Overview</text><line x1="850" y1="765" x2="1300" y2="765" stroke="#cbd5e1"/><g fill="#6366f1"><rect x="875" y="660" width="42" height="105" rx="6"/><rect x="950" y="635" width="42" height="130" rx="6"/><rect x="1025" y="680" width="42" height="85" rx="6"/><rect x="1100" y="620" width="42" height="145" rx="6"/><rect x="1175" y="650" width="42" height="115" rx="6"/></g><text x="880" y="790" font-size="12" fill="#64748b">DS</text><text x="950" y="790" font-size="12" fill="#64748b">DBMS</text><text x="1025" y="790" font-size="12" fill="#64748b">OS</text><text x="1100" y="790" font-size="12" fill="#64748b">CN</text><text x="1175" y="790" font-size="12" fill="#64748b">DM</text></g>
<text x="1360" y="835" text-anchor="end" fill="#94a3b8" font-family="Arial" font-size="11">Concept preview based on the repository frontend</text>
</svg>